<?xml version="1.0" standalone="no"?>
<!DOCTYPE svg PUBLIC "-//W3C//DTD SVG 20010904//EN"
 "http://www.w3.org/TR/2001/REC-SVG-20010904/DTD/svg10.dtd">
<svg version="1.0" xmlns="http://www.w3.org/2000/svg"
 width="560.000000pt" height="560.000000pt" viewBox="0 0 560.000000 560.000000"
 preserveAspectRatio="xMidYMid meet">
<metadata>
Created by potrace 1.14, written by Peter Selinger 2001-2017
</metadata>
<g transform="translate(0.000000,560.000000) scale(0.100000,-0.100000)"
fill="#000000" stroke="none">
<path d="M3345 5412 c-27 -5 -63 -44 -71 -76 -5 -20 1 -35 22 -64 15 -20 36
-43 46 -50 10 -8 38 -30 61 -50 24 -20 60 -50 81 -67 21 -16 44 -35 50 -40 6
-6 33 -28 61 -50 27 -22 55 -44 61 -50 6 -5 28 -23 49 -40 68 -53 70 -57 49
-73 -11 -7 -26 -19 -34 -25 -19 -15 -85 -89 -125 -141 -16 -21 -42 -52 -57
-69 -16 -16 -28 -33 -28 -36 0 -3 -15 -24 -34 -46 -19 -22 -33 -43 -30 -46 2
-4 -13 -24 -33 -46 -21 -21 -38 -41 -38 -45 0 -4 -17 -25 -37 -48 -21 -22 -38
-45 -38 -49 0 -5 -16 -29 -35 -53 -44 -54 -40 -49 -105 -133 -30 -38 -67 -85
-82 -103 -21 -25 -28 -43 -28 -76 0 -38 -8 -55 -57 -120 -46 -61 -65 -78 -94
-86 -24 -7 -48 -25 -70 -52 -19 -23 -39 -46 -45 -52 -6 -6 -18 -23 -28 -38
-12 -18 -24 -25 -41 -23 -27 2 -96 46 -90 55 12 20 -302 309 -319 293 -3 -3
-6 -1 -6 5 0 9 -122 80 -150 87 -3 1 -18 7 -35 14 -48 19 -49 19 -72 10 -13
-5 -23 -15 -23 -24 0 -8 -5 -15 -12 -15 -6 0 -8 -3 -5 -7 4 -3 0 -14 -8 -23
-8 -9 -21 -34 -29 -57 -13 -36 -13 -44 0 -62 8 -11 29 -27 47 -35 151 -68 213
-99 263 -133 66 -45 227 -203 269 -263 32 -47 49 -109 33 -127 -6 -7 -7 -13
-2 -13 4 0 1 -6 -7 -12 -9 -7 -33 -35 -55 -63 -21 -27 -43 -53 -49 -57 -5 -4
-6 -8 -2 -8 4 0 -3 -11 -16 -24 -20 -20 -24 -34 -24 -81 0 -32 -4 -60 -9 -64
-5 -3 -25 -28 -44 -56 -19 -27 -40 -57 -47 -65 -6 -8 -50 -67 -97 -130 -46
-63 -94 -125 -105 -137 -12 -13 -18 -23 -14 -23 4 0 -2 -8 -13 -19 -31 -30
-54 -61 -46 -61 4 0 2 -4 -3 -8 -15 -11 -64 -78 -75 -104 -16 -36 -57 -88 -64
-81 -3 4 -6 1 -6 -5 0 -18 -32 -52 -49 -52 -8 0 -12 -3 -8 -6 3 -4 0 -12 -6
-19 -7 -7 -29 -32 -48 -55 -18 -23 -38 -48 -44 -54 -15 -17 -18 -35 -17 -104
0 -54 -4 -71 -30 -112 -29 -46 -31 -48 -73 -46 -35 2 -47 -3 -60 -21 -14 -18
-27 -22 -57 -21 -21 1 -41 5 -44 9 -12 21 -124 -34 -124 -61 0 -5 -11 -21 -25
-35 -14 -14 -23 -25 -19 -25 4 0 -5 -11 -20 -25 -15 -14 -24 -25 -21 -25 3 0
-3 -10 -14 -22 -11 -11 -18 -24 -16 -28 3 -4 -2 -13 -10 -20 -8 -7 -12 -16
-10 -21 3 -4 -3 -12 -12 -18 -10 -6 -14 -11 -10 -11 5 0 0 -12 -11 -27 -11
-16 -23 -38 -26 -50 -4 -13 -12 -23 -18 -23 -5 0 -7 -7 -4 -15 3 -9 -1 -18 -8
-21 -13 -5 -21 -23 -24 -48 0 -5 -5 -12 -10 -15 -5 -3 -26 -40 -47 -81 -21
-41 -45 -83 -53 -92 -8 -10 -11 -18 -6 -18 5 0 5 -4 -1 -8 -10 -7 -45 -78 -44
-88 0 -4 -4 -10 -9 -13 -17 -11 -47 -75 -52 -111 -4 -29 -9 -35 -30 -36 -14
-1 -33 -2 -43 -3 -26 -2 -145 -124 -153 -158 -4 -15 -34 -72 -66 -126 -62
-103 -66 -122 -44 -166 25 -48 146 -152 213 -183 86 -41 119 -34 184 35 27 29
49 55 49 58 0 4 27 24 60 45 33 21 60 41 60 45 0 4 19 36 43 71 24 35 44 66
45 71 1 4 -7 23 -18 44 -23 42 -19 53 19 53 21 0 47 19 113 85 47 46 83 87 80
90 -3 3 0 5 7 5 18 0 400 385 441 445 19 28 38 52 41 55 27 23 49 130 26 130
-6 0 -8 3 -4 6 3 4 0 19 -8 35 -13 25 -13 32 2 63 14 29 15 42 5 72 -11 36 -9
39 28 84 30 35 45 46 67 45 46 -1 131 57 175 119 22 31 41 62 42 69 5 30 18
57 27 57 6 0 8 4 4 9 -3 5 2 16 10 24 8 9 15 21 15 28 0 7 2 10 5 7 7 -7 98
81 126 122 12 19 29 39 36 43 7 4 13 15 13 22 0 8 5 15 10 15 6 0 10 4 10 10
0 5 9 20 19 32 17 21 112 148 193 258 18 25 35 47 38 50 4 4 18 23 66 88 3 4
33 10 57 11 25 1 64 42 141 149 l68 92 51 0 c106 -1 210 -41 385 -147 71 -44
110 -78 235 -210 31 -33 67 -63 78 -66 14 -4 32 7 65 40 24 25 42 48 40 50 -3
3 4 14 15 26 22 24 25 47 6 47 -8 0 -23 19 -33 42 -19 42 -68 98 -86 98 -5 0
-7 3 -5 8 3 4 -5 16 -16 27 -11 11 -17 14 -13 5 4 -8 -1 -6 -11 6 -23 26 -123
101 -126 94 -2 -5 -16 5 -52 38 -8 7 -19 11 -24 8 -5 -4 -11 -1 -13 4 -2 6
-10 12 -18 14 -8 2 -28 8 -45 15 -16 6 -43 17 -60 23 -69 26 -155 70 -155 79
0 6 25 49 56 95 50 73 56 88 51 119 -4 26 -2 38 9 42 7 3 14 9 14 14 0 19 103
139 119 139 9 0 27 7 40 16 20 14 144 175 311 403 31 42 73 99 95 128 66 85
139 182 162 216 13 18 27 37 32 43 11 14 42 72 41 79 0 3 6 18 14 34 9 16 12
31 9 35 -4 3 1 6 10 6 15 0 142 -80 431 -271 65 -44 122 -79 127 -79 5 0 9 -4
9 -8 0 -13 101 -61 139 -66 41 -6 88 13 117 45 25 29 47 99 31 99 -6 0 -8 3
-4 6 3 4 0 18 -8 33 -16 30 -75 96 -75 84 0 -4 -4 -3 -8 2 -11 15 -70 55 -82
55 -5 0 -10 5 -10 11 0 5 -4 7 -10 4 -5 -3 -10 -1 -10 4 0 6 -7 11 -15 11 -7
0 -19 8 -24 18 -6 9 -11 14 -11 10 0 -8 -66 33 -94 59 -11 10 -16 13 -12 6 4
-7 -16 3 -45 22 -28 19 -57 35 -65 35 -8 0 -14 4 -14 9 0 5 -18 17 -40 27 -22
10 -40 22 -40 27 0 4 -4 5 -10 2 -5 -3 -10 -1 -10 4 0 6 -7 11 -15 11 -8 0
-15 4 -15 10 0 5 -3 9 -7 8 -13 -3 -63 25 -63 34 0 5 -4 6 -10 3 -5 -3 -10 -1
-10 5 0 6 -4 8 -10 5 -5 -3 -10 -1 -10 4 0 6 -7 11 -15 11 -8 0 -15 4 -15 8 0
5 -16 14 -35 22 -19 8 -35 17 -35 22 0 4 -7 8 -15 8 -9 0 -18 7 -21 15 -4 8
-10 12 -15 9 -5 -3 -9 0 -9 5 0 6 -6 11 -13 11 -7 0 -23 9 -35 20 -12 11 -24
20 -28 20 -4 0 -22 11 -41 26 -18 14 -33 22 -33 19 0 -6 -16 6 -51 38 -10 9
-23 17 -29 17 -5 0 -10 5 -10 10 0 6 -7 10 -15 10 -8 0 -15 5 -15 10 0 6 -5
10 -10 10 -11 0 -26 11 -66 47 -13 12 -24 19 -24 15 -1 -4 -10 4 -21 18 -12
14 -23 23 -24 20 -2 -3 -15 5 -29 18 -15 12 -29 22 -34 22 -4 0 -19 10 -34 23
-14 12 -36 30 -47 40 -12 9 -26 17 -31 17 -6 0 -10 5 -10 10 0 6 -7 10 -16 10
-9 0 -12 5 -8 12 4 6 3 8 -3 5 -6 -4 -21 3 -34 14 -13 11 -36 28 -51 37 -16 9
-28 20 -28 25 0 4 -4 6 -9 2 -6 -3 -14 3 -20 12 -6 10 -11 15 -11 11 0 -4 -10
-4 -22 0 -13 5 -32 7 -43 4z"/>
</g>
</svg>
